Coordinates
version=1
nRows=9
nColumns=36
inDegrees=yes

Units are S.I. units (second, meters, Newtons, ...)
If the header above contains a line with 'inDegrees', this indicates whether rotational values are in degrees (yes) or radians (no).

endheader
time	pelvis_tilt	pelvis_list	pelvis_rotation	pelvis_tx	pelvis_ty	pelvis_tz	hip_flexion_r	hip_adduction_r	hip_rotation_r	knee_angle_r	knee_angle_r_beta	ankle_angle_r	subtalar_angle_r	mtp_angle_r	hip_flexion_l	hip_adduction_l	hip_rotation_l	knee_angle_l	knee_angle_l_beta	ankle_angle_l	subtalar_angle_l	mtp_angle_l	lumbar_extension	lumbar_bending	lumbar_rotation	arm_flex_r	arm_add_r	arm_rot_r	elbow_flex_r	pro_sup_r	arm_flex_l	arm_add_l	arm_rot_l	elbow_flex_l	pro_sup_l
     30.30000000	     -0.47903603	      4.98394234	     -9.42102637	      0.68933328	      0.91347077	      0.77870528	     -3.65680083	     -8.74581751	      4.29275002	     42.01504762	      0.73330092	     -1.44521095	     -7.88951918	     -7.49999987	     27.00443379	      3.13375697	     -3.95310941	     27.05858095	      0.47226133	      4.54571107	     -8.76120952	     -7.49999987	     -2.59687933	     -6.24551226	      8.89877290	     11.75786514	    -14.43642261	      1.05316948	     32.85696342	     89.93092643	     -0.74076220	    -10.57542644	      5.82430453	     11.50412614	     89.47588709
     30.31666670	     -0.02649093	      5.47670394	     -9.45753473	      0.69242475	      0.91836574	      0.77395818	     -0.35039665	     -9.29413517	      4.56577059	     48.84722845	      0.85254497	     -9.89189187	    -11.02359091	     -7.49999987	     24.37266187	      4.36132517	     -3.18518150	     25.85707269	      0.45129105	      5.25346836	     -8.92017369	     -7.49999987	     -2.81858009	     -7.05520526	      8.40715881	     10.67691864	    -13.55745769	      1.01609746	     31.19408850	     90.30372260	     -1.02593638	    -10.73145894	      6.32189356	     12.08171092	     89.79771041
     30.33333330	      0.52295904	      5.76191849	     -9.57473754	      0.69249340	      0.91998828	      0.76967603	      2.61897433	     -9.53875403	      4.84435731	     54.48166174	      0.95088438	    -15.51962578	    -12.70993559	     -7.49999987	     21.53052047	      5.35389651	     -2.40638570	     24.23013481	      0.42289563	      5.71154941	     -9.03002856	     -7.49999987	     -3.30704454	     -7.59829896	      7.90535028	      9.68755188	    -12.85895545	      0.95535167	     29.84470041	     90.52798830	     -1.12848553	    -10.71518929	      6.69607201	     12.63401446	     89.94330393
     30.35000000	      0.90684399	      5.47935404	     -9.54946521	      0.68922480	      0.92169293	      0.76758980	      5.37728151	     -8.99827963	      4.88646704	     58.76953273	      1.02572185	    -18.47945729	    -13.71127949	     -7.49999987	     18.92605995	      5.69061733	     -1.47038261	     22.63512007	      0.39505737	      5.90222964	     -9.34530745	     -7.49999987	     -3.79397283	     -7.34856961	      7.21851755	      9.16208233	    -12.21644725	      0.32130748	     27.78828081	     93.96314266	     -0.94279273	    -10.78947757	      8.13959868	     13.47631464	     91.01842441
     30.36666670	      1.30529011	      4.96150090	     -9.46393222	      0.68431425	      0.92651497	      0.76749861	      7.91113990	     -8.09538312	      4.75060711	     61.93067658	      1.08089421	    -18.87453532	    -14.21852974	     -7.49999987	     16.32361908	      5.68528380	     -0.61601359	     20.97340583	      0.36605499	      5.90124319	     -9.52508911	     -7.49999987	     -4.54178497	     -6.85720053	      6.65201475	      8.24628192	    -11.82878579	      0.12689157	     26.89314510	     93.91052801	     -0.22093590	    -10.77309063	      8.22033449	     14.18925201	     90.97043097
     30.38333330	      1.75906106	      4.16093742	     -9.20551819	      0.67973641	      0.93338655	      0.76743898	     10.12284153	     -6.84605214	      4.28878703	     63.83123562	      1.11406523	    -17.33230271	    -14.59556819	     -7.49999987	     13.63731521	      5.35120021	      0.40711883	     19.32461375	      0.33727814	      5.72340388	     -9.86362396	     -7.49999987	     -5.44714971	     -5.99925900	      5.81363797	      7.71850284	    -11.33632218	     -0.37394118	     25.47208333	     93.84915820	      0.80873917	    -10.88954531	      9.19113667	     14.87865193	     90.80904805
     30.40000000	      2.43184266	      3.26765742	     -9.02340055	      0.67533015	      0.93939990	      0.76669190	     11.93563587	     -5.50117262	      3.78910634	     64.58688102	      1.12725373	    -14.43679862	    -15.14807486	     -7.49999987	     10.70678126	      4.81369072	      1.09388871	     17.67527530	      0.30849175	      5.67026214	     -9.87291267	     -7.49999987	     -6.77362800	     -5.09455381	      5.02496070	      7.23612895	    -10.94224838	     -0.64267878	     24.65402439	     93.17411045	      2.14044426	    -11.02821518	      9.30051951	     15.62285029	     90.22783398
     30.41666670	      2.85343712	      2.50614033	     -8.75461208	      0.67199725	      0.94061240	      0.76485039	     13.86190042	     -4.31826384	      3.19888256	     64.38646616	      1.12375583	    -10.56876442	    -15.70137055	     -7.49999987	      8.19806726	      4.31425875	      1.62251362	     16.29752799	      0.28444552	      5.86862546	     -9.64286615	     -7.49999987	     -7.66749852	     -4.27478924	      4.44783596	      6.62144070	    -10.67584824	     -0.86095267	     23.60809736	     94.51440646	      3.98510256	    -11.33597550	     11.62764224	     15.53725941	     91.58563286
     30.43333330	      3.37546812	      1.80168666	     -8.47510624	      0.67056776	      0.93820950	      0.76232837	     15.44324796	     -3.27531827	      2.64845849	     63.25424720	      1.10399488	     -6.49957507	    -16.06847204	     -7.49999987	      5.70892715	      3.86437772	      2.02265293	     15.13927829	      0.26423025	      6.29900191	     -9.46425743	     -7.49999987	     -8.71191992	     -3.50854398	      3.59541975	      6.15815169	    -10.36372486	     -1.02259172	     22.25516375	     93.48016405	      5.63230680	    -11.45171759	     12.04218816	     15.76703507	     90.66360449
